<?xml version="1.0" encoding="UTF-8"?>
<svg id="Layer_1" xmlns="http://www.w3.org/2000/svg" version="1.1" viewBox="0 0 347.76 351.44">
  <!-- Generator: Adobe Illustrator 29.3.0, SVG Export Plug-In . SVG Version: 2.1.0 Build 146)  -->
  <defs>
    <style>
      .st0 {
        fill: #fff;
      }
    </style>
  </defs>
  <g>
    <path class="st0" d="M213.62-163.97v11.73h-25.29v13.12h18.92v11.3h-18.92v24.86h-15.12v-61.01h40.41Z"/>
    <path class="st0" d="M267.81-123.82h-34.22c.23,3.07,1.21,5.42,2.92,7.04,1.71,1.62,3.86,2.43,6.45,2.43,3.77,0,6.39-1.56,7.87-4.69h16.09c-.83,3.19-2.31,6.06-4.46,8.6-2.15,2.55-4.85,4.55-8.09,6-3.24,1.45-6.87,2.17-10.88,2.17-4.83,0-9.14-1.01-12.91-3.04-3.77-2.03-6.72-4.92-8.84-8.69-2.12-3.77-3.18-8.17-3.18-13.21s1.05-9.44,3.14-13.21c2.09-3.77,5.02-6.66,8.8-8.69,3.77-2.03,8.1-3.04,13-3.04s9.02.99,12.73,2.96c3.71,1.97,6.62,4.78,8.71,8.43,2.09,3.65,3.14,7.88,3.14,12.69,0,1.33-.09,2.75-.26,4.26ZM252.61-131.38c0-2.78-.88-4.95-2.65-6.52-1.77-1.56-3.98-2.35-6.63-2.35s-4.76.77-6.5,2.3c-1.74,1.54-2.82,3.72-3.23,6.56h19.01Z"/>
    <path class="st0" d="M322.28-123.82h-34.22c.24,3.07,1.21,5.42,2.92,7.04,1.71,1.62,3.86,2.43,6.45,2.43,3.77,0,6.39-1.56,7.87-4.69h16.09c-.83,3.19-2.31,6.06-4.46,8.6-2.15,2.55-4.85,4.55-8.09,6-3.24,1.45-6.87,2.17-10.88,2.17-4.83,0-9.14-1.01-12.91-3.04-3.77-2.03-6.72-4.92-8.84-8.69-2.12-3.77-3.18-8.17-3.18-13.21s1.05-9.44,3.14-13.21c2.09-3.77,5.02-6.66,8.8-8.69,3.77-2.03,8.1-3.04,13-3.04s9.02.99,12.73,2.96c3.71,1.97,6.62,4.78,8.71,8.43,2.09,3.65,3.14,7.88,3.14,12.69,0,1.33-.09,2.75-.26,4.26ZM307.07-131.38c0-2.78-.88-4.95-2.65-6.52-1.77-1.56-3.98-2.35-6.63-2.35s-4.76.77-6.5,2.3c-1.74,1.54-2.82,3.72-3.23,6.56h19.01Z"/>
    <path class="st0" d="M344.65-115.21h21.4v12.25h-38.28v-11.82l20.51-24.42h-20.33v-12.26h37.66v11.82l-20.95,24.42Z"/>
    <path class="st0" d="M395.57-150.06c2.59-1.39,5.63-2.09,9.11-2.09,4.07,0,7.75,1.01,11.05,3.04,3.3,2.03,5.91,4.93,7.82,8.69,1.92,3.77,2.87,8.14,2.87,13.12s-.96,9.37-2.87,13.17c-1.92,3.8-4.52,6.72-7.82,8.78-3.3,2.06-6.98,3.09-11.05,3.09-3.42,0-6.44-.7-9.06-2.09-2.62-1.39-4.67-3.19-6.14-5.39v29.9h-15.12v-71.62h15.12v6.87c1.47-2.26,3.51-4.09,6.1-5.48ZM407.9-136.03c-2.09-2.11-4.67-3.17-7.74-3.17s-5.56,1.07-7.65,3.22c-2.09,2.14-3.14,5.07-3.14,8.78s1.05,6.64,3.14,8.78c2.09,2.14,4.64,3.22,7.65,3.22s5.57-1.09,7.69-3.26c2.12-2.17,3.18-5.11,3.18-8.82s-1.05-6.62-3.14-8.73Z"/>
    <path class="st0" d="M434.25-140.42c1.92-3.77,4.52-6.66,7.83-8.69,3.3-2.03,6.98-3.04,11.05-3.04,3.48,0,6.53.7,9.15,2.09,2.62,1.39,4.64,3.22,6.06,5.48v-6.87h15.12v48.5h-15.12v-6.87c-1.47,2.26-3.52,4.08-6.14,5.48-2.62,1.39-5.67,2.09-9.15,2.09-4.01,0-7.66-1.03-10.96-3.09-3.3-2.06-5.91-4.98-7.83-8.78-1.92-3.79-2.87-8.18-2.87-13.17s.96-9.36,2.87-13.12ZM465.2-135.98c-2.09-2.14-4.64-3.22-7.65-3.22s-5.56,1.06-7.65,3.17c-2.09,2.12-3.14,5.03-3.14,8.73s1.05,6.65,3.14,8.82c2.09,2.17,4.64,3.26,7.65,3.26s5.55-1.07,7.65-3.22c2.09-2.14,3.14-5.07,3.14-8.78s-1.05-6.63-3.14-8.78Z"/>
    <path class="st0" d="M505.73-151.46l11.41,30.33,11.32-30.33h16.36l-30.95,71.53h-16.27l11.32-24.68-20.07-46.85h16.89Z"/>
  </g>
  <g>
    <path class="st0" d="M114.29,229.92v5.87h-12.65v6.57h9.47v5.65h-9.47v12.44h-7.56v-30.53h20.22Z"/>
    <path class="st0" d="M141.41,250.01h-17.12c.12,1.54.6,2.71,1.46,3.52.85.81,1.93,1.22,3.23,1.22,1.89,0,3.2-.78,3.94-2.35h8.05c-.41,1.6-1.16,3.03-2.23,4.31-1.08,1.28-2.43,2.28-4.05,3-1.62.73-3.44,1.09-5.44,1.09-2.42,0-4.57-.51-6.46-1.52-1.89-1.01-3.36-2.46-4.42-4.35-1.06-1.88-1.59-4.09-1.59-6.61s.52-4.73,1.57-6.61c1.05-1.88,2.51-3.33,4.4-4.35,1.89-1.01,4.05-1.52,6.5-1.52s4.51.49,6.37,1.48,3.31,2.39,4.36,4.22,1.57,3.94,1.57,6.35c0,.67-.04,1.38-.13,2.13ZM133.8,246.23c0-1.39-.44-2.48-1.33-3.26-.89-.78-1.99-1.17-3.32-1.17s-2.38.38-3.25,1.15c-.87.77-1.41,1.86-1.61,3.28h9.51Z"/>
    <path class="st0" d="M168.66,250.01h-17.12c.12,1.54.6,2.71,1.46,3.52.85.81,1.93,1.22,3.23,1.22,1.89,0,3.2-.78,3.94-2.35h8.05c-.41,1.6-1.16,3.03-2.23,4.31-1.08,1.28-2.43,2.28-4.05,3-1.62.73-3.44,1.09-5.44,1.09-2.42,0-4.57-.51-6.46-1.52-1.89-1.01-3.36-2.46-4.42-4.35-1.06-1.88-1.59-4.09-1.59-6.61s.52-4.73,1.57-6.61,2.51-3.33,4.4-4.35c1.89-1.01,4.05-1.52,6.5-1.52s4.51.49,6.37,1.48,3.31,2.39,4.36,4.22c1.05,1.83,1.57,3.94,1.57,6.35,0,.67-.04,1.38-.13,2.13ZM161.05,246.23c0-1.39-.44-2.48-1.33-3.26-.88-.78-1.99-1.17-3.32-1.17s-2.38.38-3.25,1.15c-.87.77-1.41,1.86-1.61,3.28h9.51Z"/>
    <path class="st0" d="M179.85,254.32h10.71v6.13h-19.15v-5.91l10.26-12.22h-10.17v-6.13h18.84v5.91l-10.48,12.22Z"/>
    <path class="st0" d="M205.33,236.88c1.3-.7,2.82-1.04,4.56-1.04,2.03,0,3.88.51,5.53,1.52,1.65,1.01,2.96,2.46,3.91,4.35.96,1.88,1.44,4.07,1.44,6.57s-.48,4.69-1.44,6.59c-.96,1.9-2.26,3.36-3.91,4.39-1.65,1.03-3.5,1.54-5.53,1.54-1.71,0-3.22-.35-4.53-1.04-1.31-.7-2.34-1.59-3.07-2.7v14.96h-7.56v-35.83h7.56v3.44c.74-1.13,1.75-2.04,3.05-2.74ZM211.5,243.9c-1.05-1.06-2.34-1.59-3.87-1.59s-2.78.54-3.83,1.61c-1.05,1.07-1.57,2.54-1.57,4.39s.52,3.32,1.57,4.39c1.05,1.07,2.32,1.61,3.83,1.61s2.79-.54,3.85-1.63,1.59-2.56,1.59-4.41-.52-3.31-1.57-4.37Z"/>
    <path class="st0" d="M224.68,241.7c.96-1.88,2.26-3.33,3.92-4.35,1.65-1.01,3.49-1.52,5.53-1.52,1.74,0,3.27.35,4.58,1.04,1.31.7,2.32,1.61,3.03,2.74v-3.44h7.56v24.27h-7.56v-3.44c-.74,1.13-1.76,2.04-3.07,2.74-1.31.7-2.84,1.04-4.58,1.04-2.01,0-3.83-.51-5.49-1.54-1.65-1.03-2.96-2.49-3.92-4.39-.96-1.9-1.44-4.09-1.44-6.59s.48-4.68,1.44-6.57ZM240.17,243.92c-1.05-1.07-2.32-1.61-3.83-1.61s-2.78.53-3.83,1.59c-1.05,1.06-1.57,2.52-1.57,4.37s.52,3.33,1.57,4.41,2.32,1.63,3.83,1.63,2.78-.54,3.83-1.61c1.05-1.07,1.57-2.54,1.57-4.39s-.52-3.32-1.57-4.39Z"/>
    <path class="st0" d="M260.45,236.18l5.71,15.18,5.66-15.18h8.18l-15.48,35.79h-8.14l5.66-12.35-10.04-23.44h8.45Z"/>
  </g>
  <path class="st0" d="M148.89-167.55l-6.37,13.46c7.17,13.79,8.94,30.36,3.59,46.25-10.44,31.03-44.06,47.72-75.09,37.28-4.99-1.68-9.61-3.96-13.81-6.73-3,2.91-5.68,6.1-8.04,9.56,5.39,3.71,11.37,6.75,17.88,8.94,37.53,12.63,78.2-7.56,90.82-45.09,7.5-22.3,3.42-45.7-9-63.67ZM33.75-145.65c10.18-30.26,42.41-46.89,72.79-38.01,5.99-1.28,12.27-2.15,18.64-2.58,1.5-.1,2.99-.18,4.48-.23-5.12-3.4-10.76-6.19-16.85-8.24-37.53-12.63-78.19,7.56-90.82,45.09-9.85,29.28.27,60.46,23.01,78.75.06-5.05.97-9.82,2.71-14.27-15.17-15.42-21.32-38.61-13.95-60.52ZM94.17-177.65c-15.72,5.43-35.46,16.75-40.29,39.82-.32,1.55-.54,3.91-.47,5.75,3.57-5.43,8.03-10.31,13.28-14.51,5.57-4.47,12.1-8.24,19.4-11.2,12.85-5.22,28.14-7.98,44.21-7.98h2.06s-9.91,19.08-9.91,19.08l-.52.15c-2.76.77-6.73,1.76-8.65,2.05-12.58,1.92-30.49,6.13-44.38,15.33-13.43,8.9-20.11,20.55-19.89,34.67,3.76-5.4,8.29-10.18,13.51-14.24,5.7-4.44,12.38-8.14,19.83-11,6.71-2.57,14.22-4.52,22.35-5.81,6.92-1.1,14.47-1.73,22.45-1.9l13.88-29.35,6.19-13.08,6.04-12.78c-6.43-1-13.26-1.45-20.16-1.37-7.29.09-14.67.76-21.74,2-6.02,1.05-11.83,2.52-17.19,4.37ZM68.82-89.2c8.42-4.91,18.47-8.53,29.87-10.74l10.53-19.34c-12.37,2.08-28.87,6.33-41.85,14.93-8.85,5.87-14.77,12.93-17.71,21.12-1.52,4.22-2.24,8.74-2.17,13.55,2.27-3.26,4.81-6.28,7.63-9.07,4.03-3.98,8.6-7.48,13.7-10.45Z"/>
  <path class="st0" d="M243.05,110.34l-6.37,13.46c7.17,13.79,8.94,30.36,3.59,46.25-10.44,31.03-44.06,47.72-75.09,37.28-4.99-1.68-9.61-3.96-13.81-6.73-3,2.91-5.68,6.1-8.04,9.56,5.39,3.71,11.37,6.75,17.88,8.94,37.53,12.63,78.2-7.56,90.82-45.09,7.5-22.3,3.42-45.7-9-63.67ZM127.9,132.24c10.18-30.26,42.41-46.89,72.79-38.01,5.99-1.28,12.27-2.15,18.64-2.58,1.5-.1,2.99-.18,4.48-.23-5.12-3.4-10.76-6.19-16.85-8.24-37.53-12.63-78.19,7.56-90.82,45.09-9.85,29.28.27,60.46,23.01,78.75.06-5.05.97-9.82,2.71-14.27-15.17-15.42-21.32-38.61-13.95-60.52ZM188.32,100.24c-15.72,5.43-35.46,16.75-40.29,39.82-.32,1.55-.54,3.91-.47,5.75,3.57-5.43,8.03-10.31,13.28-14.51,5.57-4.47,12.1-8.24,19.4-11.2,12.85-5.22,28.14-7.98,44.21-7.98h2.06s-9.91,19.08-9.91,19.08l-.52.15c-2.76.77-6.73,1.76-8.65,2.05-12.58,1.92-30.49,6.13-44.38,15.33-13.43,8.9-20.11,20.55-19.89,34.67,3.76-5.4,8.29-10.18,13.51-14.24,5.7-4.44,12.38-8.14,19.83-11,6.71-2.57,14.22-4.52,22.35-5.81,6.92-1.1,14.47-1.73,22.45-1.9l13.88-29.35,6.19-13.08,6.04-12.78c-6.43-1-13.26-1.45-20.16-1.37-7.29.09-14.67.76-21.74,2-6.02,1.05-11.83,2.52-17.19,4.37ZM162.98,188.69c8.42-4.91,18.47-8.53,29.87-10.74l10.53-19.34c-12.37,2.08-28.87,6.33-41.85,14.93-8.85,5.87-14.77,12.93-17.71,21.12-1.52,4.22-2.24,8.74-2.17,13.55,2.27-3.26,4.81-6.28,7.63-9.07,4.03-3.98,8.6-7.48,13.7-10.45Z"/>
</svg>